<svg width="21" height="18" viewBox="0 0 21 18" fill="none" xmlns="http://www.w3.org/2000/svg">
<path fill-rule="evenodd" clip-rule="evenodd" d="M18.9659 7.80036H4.92988L10.3809 2.34936C10.4938 2.23826 10.5836 2.10591 10.6451 1.95993C10.7066 1.81395 10.7386 1.65724 10.7393 1.49883C10.7399 1.34042 10.7092 1.18346 10.6489 1.03698C10.5886 0.89051 10.4998 0.757429 10.3878 0.645417C10.2758 0.533405 10.1427 0.444679 9.99625 0.384357C9.84978 0.324035 9.69281 0.29331 9.5344 0.293955C9.376 0.2946 9.21929 0.326602 9.07331 0.388115C8.92733 0.449628 8.79498 0.539435 8.68388 0.652355L1.18388 8.15236C1.18088 8.15436 1.17988 8.15836 1.17688 8.16136C1.01236 8.32925 0.90078 8.54176 0.85598 8.77252C0.811181 9.00327 0.835139 9.2421 0.924881 9.45936C0.984881 9.60236 1.06988 9.72936 1.17688 9.83936L1.18388 9.84936L8.68388 17.3494C8.91888 17.5834 9.22588 17.6994 9.53188 17.6994C9.76915 17.6993 10.0011 17.629 10.1984 17.4972C10.3957 17.3654 10.5495 17.1781 10.6403 16.9589C10.7312 16.7397 10.7551 16.4985 10.7089 16.2658C10.6627 16.0331 10.5486 15.8192 10.3809 15.6514L4.93088 10.2004H18.9669C19.2851 10.2004 19.5904 10.0739 19.8154 9.84888C20.0405 9.62384 20.1669 9.31862 20.1669 9.00036C20.1669 8.6821 20.0405 8.37687 19.8154 8.15183C19.5904 7.92678 19.2851 7.80036 18.9669 7.80036" fill="#757575"/>
</svg>
