<svg width="100" height="100" viewBox="0 0 64 64" fill="none" xmlns="http://www.w3.org/2000/svg">
<path d="M32 64C49.6731 64 64 49.6731 64 32C64 14.3269 49.6731 0 32 0C14.3269 0 0 14.3269 0 32C0 49.6731 14.3269 64 32 64Z" fill="#84DBFF"/>
<path d="M51.4522 27.4143C51.7546 26.8096 51.9058 26.1041 51.9058 25.3985C51.9058 22.7277 49.7388 20.6111 47.1184 20.6111C47.068 20.6111 47.0176 20.6111 46.9672 20.6111C45.7073 15.8741 41.4239 12.397 36.2837 12.397C32.7058 12.397 29.531 14.1104 27.4648 16.7308C26.2554 16.0757 24.8947 15.723 23.4333 15.723C18.6459 15.723 14.7152 19.6033 14.7152 24.4411C14.7152 25.197 14.816 25.9025 14.9672 26.5576C10.5829 27.3135 7.20654 31.1938 7.20654 35.83C7.20654 41.0206 11.4396 45.2537 16.6302 45.2537H47.3199C52.5105 45.2537 56.7435 41.0206 56.7435 35.83C56.7435 32.2017 54.5766 28.9765 51.4522 27.4143Z" fill="white"/>
<path d="M23.7352 27.1119C24.8439 27.1119 25.751 27.5654 26.4565 28.4725L27.9179 26.8599C26.7588 25.5496 25.3478 24.8945 23.6344 24.8945C22.1226 24.8945 20.8124 25.3985 19.7541 26.4567C18.6958 27.4646 18.1919 28.7748 18.1919 30.2867C18.1919 31.8489 18.6958 33.1087 19.7541 34.1166C20.8124 35.1244 22.1226 35.6284 23.6848 35.6284C25.247 35.6284 26.658 34.9733 27.8675 33.663L26.4061 32.1512C25.7006 33.0583 24.7431 33.5119 23.6344 33.5119C22.8281 33.5119 22.0722 33.2095 21.5179 32.6552C20.9132 32.0504 20.6612 31.2945 20.6612 30.3371C20.6612 29.3796 20.9635 28.6237 21.5683 28.0189C22.1226 27.3638 22.8785 27.1119 23.7352 27.1119Z" fill="#324A5E"/>
<path d="M34.318 24.8945C32.8062 24.8945 31.496 25.3985 30.4377 26.4063C29.3794 27.4142 28.8755 28.7245 28.8755 30.2363C28.8755 31.7481 29.3794 33.0583 30.4377 34.0662C31.496 35.0741 32.7558 35.578 34.318 35.578C35.8802 35.578 37.1401 35.0741 38.1983 34.0662C39.2566 33.0583 39.7605 31.7481 39.7605 30.2363C39.7605 28.7245 39.2566 27.4142 38.1983 26.4063C37.1401 25.3985 35.8802 24.8945 34.318 24.8945ZM36.5353 32.6048C35.9306 33.2599 35.2251 33.5622 34.3684 33.5622C33.5117 33.5622 32.7558 33.2599 32.2015 32.6048C31.5967 31.9496 31.2944 31.1937 31.2944 30.2363C31.2944 29.3292 31.5967 28.5229 32.2015 27.8678C32.8062 27.2126 33.5117 26.9103 34.3684 26.9103C35.2251 26.9103 35.981 27.2126 36.5353 27.8678C37.1401 28.5229 37.4424 29.3292 37.4424 30.2363C37.4424 31.1937 37.1401 31.9496 36.5353 32.6048Z" fill="#324A5E"/>
<path d="M43.0866 36.1323L44.296 34.8724C44.8 34.3685 45.1023 33.9653 45.3039 33.6126C45.5055 33.3102 45.5559 32.9575 45.5559 32.6047C45.5559 31.9496 45.3543 31.4457 44.9007 31.0929C44.4472 30.7402 43.9433 30.5386 43.3385 30.5386C42.7338 30.5386 42.2803 30.6898 41.8771 30.9417C41.474 31.1937 41.1212 31.5968 40.8188 32.0504L42.0283 32.7559C42.4314 32.1512 42.8346 31.8488 43.2377 31.8488C43.4897 31.8488 43.6409 31.9496 43.7921 32.1008C43.9433 32.252 43.9937 32.4535 43.9937 32.6551C43.9937 32.9071 43.8929 33.1087 43.7417 33.3606C43.5905 33.6126 43.2881 33.915 42.885 34.3685L40.8692 36.4346V37.5937H45.707V36.2331H43.0866V36.1323Z" fill="#324A5E"/>
</svg>
