<svg width="50" height="50" viewBox="0 0 50 50" fill="none" xmlns="http://www.w3.org/2000/svg">
<path d="M44.25 14.0625C41.6605 14.0625 39.5625 16.1621 39.5625 18.75C39.5625 19.4062 39.7 20.0285 39.9426 20.5965L33.3125 23.4375L27.766 13.4551C29.2031 12.6527 30.1875 11.1359 30.1875 9.375C30.1875 6.78711 28.0895 4.6875 25.5 4.6875C22.9105 4.6875 20.8125 6.78711 20.8125 9.375C20.8125 11.1359 21.7969 12.6527 23.234 13.4551L17.6875 23.4375L11.0574 20.5965C11.3 20.0285 11.4375 19.4062 11.4375 18.75C11.4375 16.1621 9.33945 14.0625 6.75 14.0625C4.16055 14.0625 2.0625 16.1621 2.0625 18.75C2.0625 21.3379 4.16055 23.4375 6.75 23.4375C7.11328 23.4375 7.46172 23.3855 7.80273 23.3094L11.4375 39.0625V42.1875C11.4375 43.9148 12.8367 45.3125 14.5625 45.3125H36.4375C38.1633 45.3125 39.5625 43.9148 39.5625 42.1875V39.0625L43.1988 23.3094C43.5375 23.3887 43.8867 23.4375 44.25 23.4375C46.8395 23.4375 48.9375 21.3379 48.9375 18.75C48.9375 16.1621 46.8395 14.0625 44.25 14.0625ZM25.5 7.8125C26.3621 7.8125 27.0625 8.51445 27.0625 9.375C27.0625 10.2355 26.3621 10.9375 25.5 10.9375C24.6379 10.9375 23.9375 10.2355 23.9375 9.375C23.9375 8.51445 24.6379 7.8125 25.5 7.8125ZM5.1875 18.75C5.1875 17.8895 5.88789 17.1875 6.75 17.1875C7.61211 17.1875 8.3125 17.8895 8.3125 18.75C8.3125 19.6105 7.61211 20.3125 6.75 20.3125C5.88789 20.3125 5.1875 19.6105 5.1875 18.75ZM36.4375 42.1875H14.5625V39.0625H36.4375V42.1875ZM37.0754 35.9375H13.9246L11.1797 24.048L16.4562 26.3094C16.8559 26.4801 17.2738 26.5625 17.6859 26.5625C18.7906 26.5625 19.8527 25.9766 20.4188 24.9543L25.5 15.8113L30.5813 24.9543C31.1473 25.9766 32.2094 26.5625 33.3141 26.5625C33.7262 26.5625 34.1441 26.4801 34.5438 26.3094L39.8203 24.048L37.0754 35.9375ZM44.25 20.3125C43.3879 20.3125 42.6875 19.6105 42.6875 18.75C42.6875 17.8895 43.3879 17.1875 44.25 17.1875C45.1121 17.1875 45.8125 17.8895 45.8125 18.75C45.8125 19.6105 45.1121 20.3125 44.25 20.3125Z" fill="#FFA000"/>
</svg>
