<svg width="64" height="64" viewBox="0 0 64 64" fill="none" xmlns="http://www.w3.org/2000/svg">
<g clip-path="url(#clip0_278_25)">
<path d="M32 64C49.6731 64 64 49.6731 64 32C64 14.3269 49.6731 0 32 0C14.3269 0 0 14.3269 0 32C0 49.6731 14.3269 64 32 64Z" fill="#4F5D73"/>
<path opacity="0.2" d="M46.8849 17.535C46.7119 17.206 46.3709 17 45.9999 17H28.9999C28.6209 17 28.2749 17.214 28.1049 17.553L20.1049 33.553C19.9499 33.863 19.9659 34.231 20.1489 34.526C20.3319 34.82 20.6529 35 20.9999 35H26.4529L18.0879 53.59C17.8969 54.014 18.0249 54.515 18.3959 54.797C18.5739 54.933 18.7869 55 18.9999 55C19.2269 55 19.4549 54.922 19.6409 54.768L43.6409 34.768C43.9639 34.498 44.0839 34.056 43.9409 33.66C43.7969 33.264 43.4209 33 42.9999 33H36.9009L46.8239 18.566C47.0339 18.261 47.0579 17.863 46.8849 17.535Z" fill="#231F20"/>
<path d="M46.8849 15.535C46.7119 15.206 46.3709 15 45.9999 15H28.9999C28.6209 15 28.2749 15.214 28.1049 15.553L20.1049 31.553C19.9499 31.863 19.9659 32.231 20.1489 32.526C20.3319 32.82 20.6529 33 20.9999 33H26.4529L18.0879 51.59C17.8969 52.014 18.0249 52.515 18.3959 52.797C18.5739 52.933 18.7869 53 18.9999 53C19.2269 53 19.4549 52.922 19.6409 52.768L43.6409 32.768C43.9639 32.498 44.0839 32.056 43.9409 31.66C43.7969 31.264 43.4209 31 42.9999 31H36.9009L46.8239 16.566C47.0339 16.261 47.0579 15.863 46.8849 15.535Z" fill="#F5CF87"/>
</g>
<defs>
<clipPath id="clip0_278_25">
<rect width="64" height="64" fill="white"/>
</clipPath>
</defs>
</svg>
