<svg width="60" height="60" viewBox="0 0 60 60" fill="none" xmlns="http://www.w3.org/2000/svg">
<path d="M46 44H52C56.4 44 60 40.4 60 36V20C60 15.6 56.4 12 52 12H34V20H50C51.1 20 52 20.9 52 22V34C52 35.1 51.1 36 50 36H46" fill="#91AAB4"/>
<path d="M51 36H46V44H51V36Z" fill="#3E606F"/>
<path d="M32 44H24C22.9 44 22 44.9 22 46V60H14V44C14 39.6 17.6 36 22 36H32V44Z" fill="#91AAB4"/>
<path d="M32 0H28V4H32V0Z" fill="#A6A6A6"/>
<path d="M36 4H24V8H36V4Z" fill="#656A73"/>
<path d="M32 8H28V12H32V8Z" fill="#A6A6A6"/>
<path d="M34 12H26V20H34V12Z" fill="#7D828C"/>
<path d="M26 20H10C8.9 20 8 20.9 8 22V60H0V20C0 15.6 3.6 12 8 12H26V20Z" fill="#91AAB4"/>
<path d="M22 15H13V17H22V15Z" fill="#3E606F"/>
<path d="M47 15H38V17H47V15Z" fill="#3E606F"/>
<path d="M38 12H34V20H38V12Z" fill="#3E606F"/>
<path d="M26 12H22V20H26V12Z" fill="#3E606F"/>
<path d="M8 56H0V60H8V56Z" fill="#3E606F"/>
<path d="M22 56H14V60H22V56Z" fill="#3E606F"/>
<path d="M32 36H27V44H32V36Z" fill="#3E606F"/>
<path d="M39 48C43.4183 48 47 44.4183 47 40C47 35.5817 43.4183 32 39 32C34.5817 32 31 35.5817 31 40C31 44.4183 34.5817 48 39 48Z" fill="#A6A6A6"/>
<path d="M39 44C41.2091 44 43 42.2091 43 40C43 37.7909 41.2091 36 39 36C36.7909 36 35 37.7909 35 40C35 42.2091 36.7909 44 39 44Z" fill="#656A73"/>
<path d="M35 39H31V41H35V39Z" fill="#656A73"/>
<path d="M40 32H38V36H40V32Z" fill="#656A73"/>
<path d="M40 44H38V48H40V44Z" fill="#656A73"/>
<path d="M47 39H43V41H47V39Z" fill="#656A73"/>
<path d="M39 49C34 49 30 45 30 40C30 35 34 31 39 31C44 31 48 35 48 40C48 45 44 49 39 49ZM39 33C35.1 33 32 36.1 32 40C32 43.9 35.1 47 39 47C42.9 47 46 43.9 46 40C46 36.1 42.9 33 39 33Z" fill="#7D828C"/>
<path d="M39 45C36.2 45 34 42.8 34 40C34 37.2 36.2 35 39 35C41.8 35 44 37.2 44 40C44 42.8 41.8 45 39 45ZM39 37C37.3 37 36 38.3 36 40C36 41.7 37.3 43 39 43C40.7 43 42 41.7 42 40C42 38.3 40.7 37 39 37Z" fill="#7D828C"/>
</svg>
