<svg width="64" height="65" viewBox="0 0 64 65" fill="none" xmlns="http://www.w3.org/2000/svg">
<path d="M23.3368 35.347H18.451C16.8341 35.3482 15.2328 35.0307 13.7387 34.4125C12.2447 33.7943 10.8872 32.8876 9.74384 31.7443C8.60052 30.601 7.69383 29.2435 7.07564 27.7494C6.45745 26.2553 6.13989 24.6541 6.14112 23.0372V14.3207C6.14112 14.1551 6.2069 13.9963 6.324 13.8792C6.44109 13.7621 6.59991 13.6963 6.76551 13.6963H20.2398C20.4054 13.6963 20.5643 13.7621 20.6814 13.8792C20.7985 13.9963 20.8642 14.1551 20.8642 14.3207C20.8642 14.4863 20.7985 14.6451 20.6814 14.7622C20.5643 14.8793 20.4054 14.9451 20.2398 14.9451H7.3899V23.0372C7.38908 24.49 7.67462 25.9287 8.2302 27.271C8.78578 28.6134 9.6005 29.8331 10.6278 30.8604C11.6551 31.8876 12.8747 32.7024 14.2171 33.2579C15.5595 33.8135 16.9982 34.0991 18.451 34.0982H23.3368C23.5024 34.0982 23.6612 34.164 23.7783 34.2811C23.8954 34.3982 23.9612 34.557 23.9612 34.7226C23.9612 34.8882 23.8954 35.047 23.7783 35.1641C23.6612 35.2812 23.5024 35.347 23.3368 35.347Z" fill="#F08000"/>
<path d="M45.5493 35.347H40.5761C40.4105 35.347 40.2516 35.2812 40.1345 35.1641C40.0174 35.047 39.9517 34.8882 39.9517 34.7226C39.9517 34.557 40.0174 34.3982 40.1345 34.2811C40.2516 34.164 40.4105 34.0982 40.5761 34.0982H45.5493C47.0021 34.0991 48.4408 33.8135 49.7832 33.2579C51.1255 32.7024 52.3452 31.8876 53.3725 30.8604C54.3998 29.8331 55.2145 28.6134 55.7701 27.271C56.3257 25.9287 56.6112 24.49 56.6104 23.0372V14.9451H46.5515C46.3859 14.9451 46.2271 14.8793 46.11 14.7622C45.9929 14.6451 45.9271 14.4863 45.9271 14.3207C45.9271 14.1551 45.9929 13.9963 46.11 13.8792C46.2271 13.7621 46.3859 13.6963 46.5515 13.6963H57.2348C57.4004 13.6963 57.5592 13.7621 57.6763 13.8792C57.7934 13.9963 57.8592 14.1551 57.8592 14.3207V23.0372C57.8604 24.6541 57.5428 26.2553 56.9247 27.7494C56.3065 29.2435 55.3998 30.601 54.2564 31.7443C53.1131 32.8876 51.7556 33.7943 50.2616 34.4125C48.7675 35.0307 47.1662 35.3482 45.5493 35.347Z" fill="#F08000"/>
<path d="M34.5633 36.6143H29.437V48.2289H34.5633V36.6143Z" fill="#F4C23F"/>
<path d="M24.1079 20.1308C24.6011 19.4533 23.9768 18.1796 24.2421 17.3648C24.5075 16.5499 25.7594 15.9193 25.7594 15.0514C25.7594 14.1835 24.495 13.5185 24.2421 12.7349C23.9892 11.9513 24.6011 10.6463 24.1079 9.96885C23.6146 9.29139 22.2035 9.48807 21.5167 8.98856C20.8298 8.48904 20.6019 7.09353 19.7871 6.82817C18.9723 6.5628 17.9857 7.5587 17.1147 7.5587C16.2437 7.5587 15.229 6.57217 14.4454 6.82817C13.6618 7.08417 13.3902 8.49529 12.7128 8.98856C12.0353 9.48182 10.621 9.28514 10.1215 9.96885C9.62202 10.6526 10.2527 11.9201 9.99041 12.7349C9.72817 13.5497 8.47314 14.1804 8.47314 15.0514C8.47314 15.9224 9.73441 16.5811 9.99041 17.3648C10.2464 18.1484 9.63139 19.4533 10.1215 20.1308C10.3401 20.4305 10.7366 20.5616 11.1674 20.6553L10.0154 23.2184C9.97898 23.2977 9.96544 23.3856 9.97629 23.4721C9.98714 23.5587 10.022 23.6405 10.0768 23.7083C10.1317 23.7761 10.2044 23.8273 10.2867 23.856C10.3691 23.8848 10.4579 23.8899 10.543 23.8709L12.1758 23.5212C12.2734 23.5004 12.3751 23.5112 12.466 23.5522C12.557 23.5932 12.6325 23.6622 12.6815 23.7491L13.5057 25.204C13.5484 25.2798 13.6112 25.3422 13.6873 25.3843C13.7634 25.4264 13.8498 25.4464 13.9366 25.4422C14.0235 25.438 14.1074 25.4097 14.1791 25.3604C14.2508 25.3112 14.3073 25.243 14.3424 25.1634L15.2166 23.2215C15.8347 23.0155 16.5122 22.5409 17.1147 22.5409C17.7172 22.5409 18.3947 23.0155 19.0129 23.2215L19.887 25.1634C19.9226 25.2428 19.9795 25.3109 20.0514 25.36C20.1234 25.4091 20.2075 25.4373 20.2944 25.4415C20.3814 25.4457 20.4679 25.4257 20.5442 25.3838C20.6205 25.3419 20.6837 25.2796 20.7268 25.204L21.5479 23.7491C21.5971 23.6616 21.6731 23.5922 21.7647 23.5512C21.8563 23.5102 21.9587 23.4997 22.0568 23.5212L23.6895 23.8709C23.7745 23.8887 23.8626 23.8827 23.9444 23.8536C24.0261 23.8245 24.0982 23.7734 24.1528 23.7059C24.2073 23.6384 24.2422 23.5572 24.2536 23.4712C24.2649 23.3852 24.2523 23.2977 24.2171 23.2184L23.062 20.6553C23.496 20.5616 23.8893 20.4305 24.1079 20.1308Z" fill="#F4C23F"/>
<path d="M29.437 38.784C31.135 39.0546 32.8652 39.0546 34.5633 38.784V36.6143H29.437V38.784Z" fill="#F4A93F"/>
<path d="M17.4487 10.8711H43.6731C44.4374 10.8711 45.1703 11.1747 45.7107 11.7151C46.2511 12.2555 46.5547 12.9884 46.5547 13.7527V23.0311C46.5547 24.9423 46.1782 26.8347 45.4467 28.6004C44.7153 30.3661 43.6431 31.9703 42.2916 33.3216C40.94 34.6729 39.3355 35.7447 37.5697 36.4757C35.8039 37.2068 33.9113 37.5829 32.0001 37.5825C28.1409 37.5825 24.4397 36.0494 21.7107 33.3205C18.9818 30.5916 17.4487 26.8904 17.4487 23.0311V10.8711Z" fill="#F4C23F"/>
<path d="M36.324 35.3191C28.2881 35.3191 21.7726 28.8036 21.7726 20.7677V10.8711H17.4487V23.0311C17.4487 31.067 23.9642 37.5825 32.0001 37.5825C35.1823 37.5877 38.2776 36.5443 40.8072 34.6135C39.3592 35.083 37.8462 35.3211 36.324 35.3191Z" fill="#F4A93F"/>
<path d="M25.7063 10.8711H17.4487V23.0311C17.4487 23.387 17.4612 23.7398 17.4862 24.0863L17.7391 24.2049L17.9607 24.308L18.607 25.7409C18.7489 26.0571 18.9758 26.3277 19.2624 26.5226C19.5489 26.7176 19.8839 26.8292 20.2302 26.845C20.5764 26.8609 20.9202 26.7804 21.2234 26.6124C21.5266 26.4445 21.7772 26.1958 21.9475 25.8939L22.4314 25.0385L23.3929 25.2446C23.5233 25.272 23.6562 25.2856 23.7894 25.2851C24.1025 25.2852 24.4107 25.2069 24.6856 25.0572C24.9606 24.9075 25.1937 24.6912 25.3636 24.4282C25.5335 24.1652 25.6347 23.8638 25.658 23.5515C25.6813 23.2393 25.626 22.9262 25.4971 22.6408L24.9071 21.3296C25.0312 21.217 25.1442 21.0926 25.2442 20.9581C25.8468 20.1308 25.7219 19.1599 25.6314 18.4512C25.6064 18.2451 25.5689 17.9392 25.5783 17.8081C25.647 17.6988 25.8437 17.4928 25.9779 17.3491C26.4774 16.8247 27.1642 16.1004 27.1642 15.0514C27.1642 14.0024 26.4774 13.275 25.9779 12.7505C25.8437 12.6069 25.647 12.4008 25.5783 12.2947C25.5689 12.1605 25.6064 11.8576 25.6314 11.6485C25.6563 11.4393 25.6969 11.1489 25.7063 10.8711Z" fill="#F4A93F"/>
<path d="M40.5758 50.8603H23.4238L24.9442 48.6656C25.0373 48.5306 25.1619 48.4203 25.3071 48.3442C25.4523 48.2681 25.6138 48.2284 25.7778 48.2285H38.2219C38.3858 48.2284 38.5474 48.2681 38.6926 48.3442C38.8378 48.4203 38.9623 48.5306 39.0554 48.6656L40.5758 50.8603Z" fill="#4D4C78"/>
<path d="M24.9879 50.3015L26.424 48.2285H25.7778C25.6138 48.2284 25.4523 48.2681 25.3071 48.3442C25.1619 48.4203 25.0373 48.5306 24.9442 48.6656L23.4238 50.8603H40.5758L40.1887 50.3015H24.9879Z" fill="#323150"/>
<path d="M43.7729 50.8604H20.2271C19.2719 50.8604 18.4976 51.6347 18.4976 52.5899V56.4833C18.4976 57.4385 19.2719 58.2129 20.2271 58.2129H43.7729C44.7281 58.2129 45.5024 57.4385 45.5024 56.4833V52.5899C45.5024 51.6347 44.7281 50.8604 43.7729 50.8604Z" fill="#4D4C78"/>
<path d="M44.4972 57.1168H20.9545C20.4955 57.1168 20.0553 56.9347 19.7304 56.6105C19.4056 56.2862 19.2227 55.8463 19.2219 55.3873V51.4942C19.2223 51.382 19.2338 51.2701 19.2562 51.1602C19.0221 51.3186 18.8305 51.5322 18.6982 51.782C18.5659 52.0319 18.497 52.3104 18.4976 52.5931V56.4831C18.4976 56.9421 18.6797 57.3823 19.0039 57.7072C19.3282 58.032 19.7681 58.2149 20.2271 58.2158H43.7729C44.1737 58.2152 44.562 58.0754 44.8712 57.8203C45.1804 57.5652 45.3914 57.2106 45.4681 56.8171C45.1825 57.0136 44.8438 57.1182 44.4972 57.1168Z" fill="#323150"/>
<path d="M41.8403 53.2451H21.8161C21.3109 53.2451 20.9014 53.6547 20.9014 54.1599V54.9431C20.9014 55.4483 21.3109 55.8579 21.8161 55.8579H41.8403C42.3455 55.8579 42.755 55.4483 42.755 54.9431V54.1599C42.755 53.6547 42.3455 53.2451 41.8403 53.2451Z" fill="#323150"/>
<path d="M32.0999 29.8932C31.9346 29.8924 31.7762 29.8263 31.6593 29.7094C31.5424 29.5925 31.4763 29.4341 31.4755 29.2688V17.3742L29.3307 19.0101C29.198 19.0972 29.0371 19.1308 28.8806 19.104C28.724 19.0772 28.5835 18.992 28.4872 18.8657C28.391 18.7394 28.3462 18.5812 28.362 18.4232C28.3777 18.2652 28.4528 18.119 28.5721 18.0142L31.7221 15.6165C31.8147 15.5462 31.925 15.5031 32.0407 15.4921C32.1564 15.4811 32.2729 15.5025 32.377 15.5541C32.4812 15.6057 32.5689 15.6854 32.6302 15.7841C32.6916 15.8828 32.7241 15.9967 32.7243 16.1129V29.2688C32.7243 29.4344 32.6585 29.5932 32.5414 29.7103C32.4243 29.8274 32.2655 29.8932 32.0999 29.8932Z" fill="#F4A93F"/>
<path d="M35.6996 30.4988H28.4286C28.263 30.4988 28.1042 30.433 27.9871 30.3159C27.87 30.1988 27.8042 30.04 27.8042 29.8744C27.8042 29.7088 27.87 29.55 27.9871 29.4329C28.1042 29.3158 28.263 29.25 28.4286 29.25H35.6996C35.8652 29.25 36.024 29.3158 36.1411 29.4329C36.2582 29.55 36.324 29.7088 36.324 29.8744C36.324 30.04 36.2582 30.1988 36.1411 30.3159C36.024 30.433 35.8652 30.4988 35.6996 30.4988Z" fill="#F4A93F"/>
<path d="M32.4119 29.8932C32.2466 29.8924 32.0882 29.8263 31.9713 29.7094C31.8544 29.5925 31.7883 29.4341 31.7875 29.2688V17.3742L29.6427 19.0101C29.51 19.0972 29.3491 19.1308 29.1926 19.104C29.036 19.0772 28.8955 18.992 28.7992 18.8657C28.703 18.7394 28.6582 18.5812 28.674 18.4232C28.6897 18.2652 28.7648 18.119 28.8841 18.0142L32.0342 15.6165C32.1267 15.5462 32.237 15.5031 32.3527 15.4921C32.4684 15.4811 32.5849 15.5025 32.6891 15.5541C32.7932 15.6057 32.8809 15.6854 32.9422 15.7841C33.0036 15.8828 33.0362 15.9967 33.0363 16.1129V29.2688C33.0363 29.4344 32.9705 29.5932 32.8534 29.7103C32.7363 29.8274 32.5775 29.8932 32.4119 29.8932Z" fill="#F08000"/>
<path d="M36.0116 30.4988H28.7406C28.575 30.4988 28.4162 30.433 28.2991 30.3159C28.182 30.1988 28.1162 30.04 28.1162 29.8744C28.1162 29.7088 28.182 29.55 28.2991 29.4329C28.4162 29.3158 28.575 29.25 28.7406 29.25H36.0116C36.1772 29.25 36.336 29.3158 36.4531 29.4329C36.5702 29.55 36.636 29.7088 36.636 29.8744C36.636 30.04 36.5702 30.1988 36.4531 30.3159C36.336 30.433 36.1772 30.4988 36.0116 30.4988Z" fill="#F08000"/>
<path d="M25.7594 15.0514C25.7594 15.9193 24.495 16.5811 24.2421 17.3648C23.9892 18.1484 24.6011 19.4533 24.1079 20.1308C23.6146 20.8083 22.2035 20.6116 21.5167 21.1111C20.8298 21.6106 20.6019 23.0061 19.7871 23.2715C18.9723 23.5368 17.9857 22.5409 17.1147 22.5409C16.2437 22.5409 15.229 23.5275 14.4454 23.2715C13.6618 23.0155 13.3902 21.6044 12.7128 21.1111C12.0353 20.6178 10.621 20.8145 10.1215 20.1308C9.62202 19.4471 10.2527 18.1796 9.99041 17.3648C9.72817 16.5499 8.47314 15.9193 8.47314 15.0514C8.47314 14.1835 9.73441 13.5185 9.99041 12.7349C10.2464 11.9513 9.63139 10.6463 10.1215 9.96885C10.6117 9.29139 12.029 9.48807 12.7128 8.98856C13.3965 8.48904 13.6306 7.09353 14.4454 6.82817C15.2603 6.5628 16.2437 7.5587 17.1147 7.5587C17.9857 7.5587 19.0004 6.57217 19.7871 6.82817C20.5738 7.08417 20.8392 8.49529 21.5167 8.98856C22.1941 9.48182 23.6084 9.28514 24.1079 9.96885C24.6074 10.6526 23.9768 11.9201 24.2421 12.7349C24.5075 13.5497 25.7594 14.1804 25.7594 15.0514Z" fill="#F4C23F"/>
<path d="M16.9147 21.2427C15.4153 21.2414 13.9774 20.6465 12.9154 19.5881C12.4005 19.0716 11.9893 18.4611 11.7041 17.7898C11.2654 16.7538 11.1463 15.6103 11.3622 14.5061C11.578 13.4019 12.1189 12.3874 12.9154 11.5928C13.8427 10.6654 15.0635 10.0892 16.3688 9.96284C17.6741 9.83648 18.9827 10.1678 20.0707 10.9001C21.1586 11.6324 21.9581 12.7201 22.3323 13.977C22.7066 15.2338 22.6322 16.5817 22.1221 17.7898C21.6895 18.8134 20.9648 19.6869 20.0387 20.301C19.1125 20.9151 18.0259 21.2426 16.9147 21.2427Z" fill="#F4A93F"/>
<path d="M20.4989 16.8183C20.4733 16.762 20.4368 16.7112 20.3915 16.6689C20.3463 16.6266 20.2932 16.5936 20.2352 16.5719C20.1772 16.5502 20.1155 16.5401 20.0536 16.5422C19.9917 16.5443 19.9308 16.5586 19.8745 16.5842L16.406 18.1452C16.3571 18.1657 16.3126 18.1954 16.2749 18.2326C16.2371 18.1954 16.1926 18.1657 16.1437 18.1452L12.6721 16.5842C12.6161 16.5582 12.5554 16.5436 12.4936 16.5413C12.4318 16.5391 12.3702 16.5491 12.3124 16.5709C12.2545 16.5927 12.2016 16.6258 12.1567 16.6683C12.1118 16.7108 12.0758 16.7618 12.0509 16.8183L10.4399 20.4055C11.0675 20.7676 12.1414 20.6958 12.7127 21.111C13.3683 21.5887 13.615 22.9186 14.3674 23.2433L16.2749 19.0006L17.967 22.7625C18.6007 23.0373 19.247 23.4462 19.7871 23.2714C20.6019 23.006 20.8392 21.6043 21.5166 21.111C21.7258 20.9612 21.9974 20.8738 22.2909 20.8082L20.4989 16.8183Z" fill="#F4A93F"/>
<path d="M13.5057 25.204L12.6815 23.7492C12.6325 23.6623 12.557 23.5933 12.466 23.5523C12.3751 23.5113 12.2734 23.5004 12.1758 23.5213L10.543 23.8709C10.4579 23.8899 10.3691 23.8848 10.2867 23.8561C10.2044 23.8273 10.1317 23.7762 10.0768 23.7083C10.022 23.6405 9.98714 23.5587 9.97629 23.4721C9.96544 23.3856 9.97898 23.2977 10.0154 23.2184L12.8907 16.8184C12.9163 16.7621 12.9528 16.7113 12.998 16.669C13.0433 16.6267 13.0964 16.5938 13.1544 16.572C13.2124 16.5503 13.2741 16.5402 13.336 16.5423C13.3979 16.5444 13.4587 16.5587 13.5151 16.5843L16.9836 18.1453C17.0972 18.1964 17.186 18.2905 17.2304 18.4069C17.2749 18.5234 17.2715 18.6527 17.2209 18.7665L14.3424 25.1634C14.3073 25.243 14.2508 25.3112 14.1791 25.3605C14.1074 25.4097 14.0235 25.438 13.9366 25.4422C13.8498 25.4464 13.7634 25.4264 13.6873 25.3843C13.6112 25.3422 13.5484 25.2798 13.5057 25.204Z" fill="#DE3226"/>
<path d="M13.896 17.9926C13.9496 17.8768 13.9798 17.7515 13.9849 17.624C13.9901 17.4965 13.97 17.3693 13.926 17.2495C13.8819 17.1298 13.8147 17.0199 13.7281 16.9261C13.6415 16.8324 13.5373 16.7566 13.4214 16.7032L13.1467 16.5752C13.0332 16.6204 12.9415 16.7076 12.8907 16.8187L10.0154 23.2187C9.97898 23.298 9.96544 23.3858 9.97629 23.4724C9.98714 23.559 10.022 23.6408 10.0768 23.7086C10.1317 23.7764 10.2044 23.8276 10.2867 23.8563C10.3691 23.8851 10.4579 23.8902 10.543 23.8712L11.2486 23.7182L13.896 17.9926Z" fill="#B11A31"/>
<path d="M20.7266 25.2039L21.5477 23.7491C21.5969 23.6616 21.6729 23.5922 21.7645 23.5511C21.8561 23.5101 21.9585 23.4996 22.0566 23.5212L23.6894 23.8708C23.7743 23.8886 23.8625 23.8826 23.9442 23.8535C24.0259 23.8244 24.098 23.7733 24.1526 23.7058C24.2071 23.6384 24.242 23.5572 24.2534 23.4711C24.2647 23.3851 24.2521 23.2977 24.217 23.2183L21.3385 16.8183C21.3136 16.7618 21.2776 16.7108 21.2327 16.6683C21.1878 16.6258 21.1349 16.5927 21.077 16.5709C21.0192 16.5491 20.9576 16.5391 20.8958 16.5413C20.834 16.5436 20.7733 16.5582 20.7173 16.5842L17.2457 18.1452C17.132 18.1963 17.0433 18.2904 16.9988 18.4068C16.9543 18.5233 16.9578 18.6525 17.0084 18.7664L19.8868 25.1633C19.9224 25.2428 19.9793 25.3108 20.0513 25.3599C20.1232 25.409 20.2073 25.4372 20.2943 25.4414C20.3812 25.4456 20.4677 25.4256 20.544 25.3837C20.6203 25.3418 20.6835 25.2796 20.7266 25.2039Z" fill="#DE3226"/>
<path d="M18.148 18.4824L17.0928 18.9538L19.8869 25.1634C19.9225 25.2429 19.9794 25.3109 20.0514 25.36C20.1233 25.4091 20.2074 25.4373 20.2944 25.4415C20.3813 25.4457 20.4678 25.4257 20.5441 25.3838C20.6204 25.3419 20.6836 25.2796 20.7267 25.204L20.9577 24.7919L18.148 18.4824Z" fill="#B11A31"/>
<path d="M16.9834 18.1453L13.5149 16.5843C13.4586 16.5587 13.3977 16.5444 13.3358 16.5423C13.2739 16.5402 13.2122 16.5503 13.1542 16.572C13.0962 16.5938 13.0431 16.6267 12.9979 16.669C12.9526 16.7113 12.9162 16.7621 12.8905 16.8184L12.1069 18.5667C12.337 18.9365 12.6082 19.279 12.9155 19.5876C13.7865 20.4544 14.9145 21.0163 16.1311 21.1892L17.2207 18.7665C17.2713 18.6527 17.2747 18.5234 17.2303 18.4069C17.1858 18.2905 17.0971 18.1964 16.9834 18.1453Z" fill="#B11A31"/>
<path d="M21.9442 18.1701L21.3385 16.8183C21.3136 16.7618 21.2776 16.7108 21.2327 16.6683C21.1878 16.6258 21.1349 16.5927 21.077 16.5709C21.0192 16.5491 20.9576 16.5391 20.8958 16.5413C20.834 16.5436 20.7733 16.5582 20.7173 16.5842L17.2457 18.1452C17.132 18.1963 17.0433 18.2904 16.9988 18.4068C16.9543 18.5233 16.9578 18.6525 17.0084 18.7664L18.0698 21.1235C18.4282 21.048 18.7784 20.9382 19.1157 20.7957C20.3374 20.2796 21.3387 19.3501 21.9442 18.1701Z" fill="#B11A31"/>
<path d="M17.1145 20.2026C20.037 20.2026 22.4062 17.8334 22.4062 14.9108C22.4062 11.9883 20.037 9.61914 17.1145 9.61914C14.1919 9.61914 11.8228 11.9883 11.8228 14.9108C11.8228 17.8334 14.1919 20.2026 17.1145 20.2026Z" fill="#F8881B"/>
<path d="M17.1145 19.5844C19.6956 19.5844 21.788 17.492 21.788 14.9109C21.788 12.3297 19.6956 10.2373 17.1145 10.2373C14.5333 10.2373 12.4409 12.3297 12.4409 14.9109C12.4409 17.492 14.5333 19.5844 17.1145 19.5844Z" fill="#F08000"/>
<path d="M17.1144 19.0599C19.4059 19.0599 21.2635 17.2023 21.2635 14.9108C21.2635 12.6193 19.4059 10.7617 17.1144 10.7617C14.8229 10.7617 12.9653 12.6193 12.9653 14.9108C12.9653 17.2023 14.8229 19.0599 17.1144 19.0599Z" fill="#F4C23F"/>
<path d="M20.8108 8.7946C20.9271 8.72644 21.028 8.63504 21.1074 8.52611C20.6984 7.90796 20.4112 7.0307 19.7868 6.82777C19.5714 6.75909 19.3372 6.78094 19.0968 6.85274C19.0237 6.99422 18.9872 7.15172 18.9904 7.31093C18.9937 7.47014 19.0367 7.626 19.1156 7.76435L19.5121 8.44806C19.6387 8.66589 19.8464 8.82467 20.0898 8.88962C20.3333 8.95457 20.5925 8.9204 20.8108 8.7946Z" fill="#FAD564"/>
<path d="M17.1365 7.8714C17.2004 7.77325 17.2459 7.66429 17.2707 7.54984C17.2189 7.55607 17.1668 7.5592 17.1146 7.55921C16.3498 7.55921 15.4756 6.80057 14.7388 6.78809C14.7143 6.96622 14.7409 7.14766 14.8156 7.31126C14.8902 7.47486 15.0097 7.6139 15.1603 7.71218L15.8222 8.14613C15.9265 8.21445 16.0432 8.26153 16.1658 8.2847C16.2883 8.30786 16.4142 8.30665 16.5363 8.28114C16.6583 8.25562 16.7742 8.2063 16.8771 8.136C16.9801 8.0657 17.0683 7.97578 17.1365 7.8714Z" fill="#FAD564"/>
<path d="M24.242 12.7346C23.9766 11.9197 24.601 10.646 24.1077 9.96852C23.7955 9.54082 23.1305 9.45965 22.5062 9.33789C22.3405 9.61949 22.2673 9.94598 22.297 10.2714L22.4219 11.5451C22.441 11.7464 22.4997 11.942 22.5945 12.1207C22.6893 12.2993 22.8184 12.4576 22.9744 12.5863C23.1304 12.715 23.3102 12.8117 23.5036 12.8709C23.697 12.9301 23.9002 12.9506 24.1015 12.9313C24.1709 12.9249 24.2398 12.9134 24.3075 12.8969C24.2817 12.8445 24.2598 12.7902 24.242 12.7346Z" fill="#FAD564"/>
<path d="M15.509 22.5267C15.6717 22.1746 15.5181 21.7572 15.166 21.5944C14.8138 21.4317 14.3964 21.5853 14.2337 21.9375L13.6991 23.0943C13.5364 23.4465 13.69 23.8639 14.0422 24.0266C14.3943 24.1893 14.8117 24.0358 14.9745 23.6836L15.509 22.5267Z" fill="#F44533"/>
<path d="M22.8484 20.166C22.6906 19.8116 22.2754 19.6522 21.921 19.81C21.5666 19.9678 21.4072 20.383 21.565 20.7374L22.0833 21.9016C22.2411 22.256 22.6564 22.4154 23.0108 22.2576C23.3652 22.0998 23.5246 21.6846 23.3668 21.3302L22.8484 20.166Z" fill="#F44533"/>
<path d="M36.8299 48.2285H28.9844C28.6206 48.2285 28.3257 48.5232 28.3257 48.8868C28.3257 49.2503 28.6206 49.545 28.9844 49.545H36.8299C37.1937 49.545 37.4886 49.2503 37.4886 48.8868C37.4886 48.5232 37.1937 48.2285 36.8299 48.2285Z" fill="#64639C"/>
<path d="M42.4335 50.8604H28.9248C28.4782 50.8604 28.1162 51.2224 28.1162 51.6689V51.6696C28.1162 52.1161 28.4782 52.4781 28.9248 52.4781H42.4335C42.88 52.4781 43.2421 52.1161 43.2421 51.6696V51.6689C43.2421 51.2224 42.88 50.8604 42.4335 50.8604Z" fill="#64639C"/>
<path d="M40.5542 10.8711H33.3425C32.6356 10.8711 32.0625 11.4435 32.0625 12.1497C32.0625 12.8558 32.6356 13.4283 33.3425 13.4283H40.5542C41.2611 13.4283 41.8342 12.8558 41.8342 12.1497C41.8342 11.4435 41.2611 10.8711 40.5542 10.8711Z" fill="#FAD564"/>
<path d="M46.5015 17.1405C46.5015 16.2835 45.8075 15.5889 44.9514 15.5889C44.0953 15.5889 43.4014 16.2835 43.4014 17.1405V22.6748C43.4014 23.5317 44.0953 24.2264 44.9514 24.2264C45.8075 24.2264 46.5015 23.5317 46.5015 22.6748V17.1405Z" fill="#FAD564"/>
<path d="M34.5633 42.5119C34.5633 42.055 34.1929 41.6846 33.736 41.6846C33.2791 41.6846 32.9087 42.055 32.9087 42.5119V45.1112C32.9087 45.5681 33.2791 45.9385 33.736 45.9385C34.1929 45.9385 34.5633 45.5681 34.5633 45.1112V42.5119Z" fill="#FAD564"/>
</svg>
