<svg width="4" height="18" viewBox="0 0 4 18" fill="none" xmlns="http://www.w3.org/2000/svg">
<path fill-rule="evenodd" clip-rule="evenodd" d="M3.84757 16.5352C3.747 16.7779 3.59962 16.9983 3.41386 17.184C3.2281 17.3697 3.00758 17.517 2.7649 17.6175C2.52223 17.7179 2.26214 17.7696 1.9995 17.7695C1.73686 17.7695 1.4768 17.7177 1.23417 17.6171C0.991545 17.5165 0.771104 17.3691 0.585433 17.1833C0.399763 16.9975 0.252499 16.777 0.15205 16.5343C0.0516014 16.2916 -6.56619e-05 16.0314 -2.49752e-08 15.7688C0.000132535 15.2383 0.210973 14.7295 0.58614 14.3545C0.961306 13.9795 1.47007 13.7689 2.0005 13.769C2.53093 13.7691 3.03959 13.98 3.41457 14.3552C3.78955 14.7304 4.00013 15.2393 4 15.7698C3.99993 16.0324 3.94814 16.2925 3.84757 16.5352ZM3.41436 10.4136C3.03938 10.7886 2.5308 10.9993 2.0005 10.9993C1.4702 10.9993 0.961619 10.7886 0.58664 10.4136C0.211661 10.0386 0.000999857 9.5299 0.000999833 8.99953C0.00099981 8.46916 0.211661 7.96051 0.58664 7.58548C0.961619 7.21045 1.4702 6.99976 2.0005 6.99976C2.5308 6.99976 3.03938 7.21045 3.41436 7.58548C3.78934 7.96051 4 8.46916 4 8.99953C4 9.5299 3.78934 10.0386 3.41436 10.4136ZM3.84757 2.99574C3.747 3.23839 3.59962 3.45887 3.41386 3.64456C3.2281 3.83026 3.00758 3.97754 2.7649 4.078C2.52223 4.17847 2.26214 4.23014 1.9995 4.23007C1.73686 4.23001 1.4768 4.17821 1.23417 4.07762C0.991545 3.97704 0.771104 3.82964 0.585433 3.64385C0.399762 3.45807 0.252498 3.23752 0.15205 2.99481C0.0516008 2.7521 -6.62537e-05 2.49198 -6.16804e-07 2.2293C0.000131943 1.6988 0.210973 1.19007 0.586139 0.815042C0.961306 0.440012 1.47007 0.229399 2.0005 0.22953C2.53093 0.229664 3.03959 0.440533 3.41457 0.81575C3.78955 1.19097 4.00013 1.6998 4 2.2303C3.99993 2.49298 3.94814 2.75308 3.84757 2.99574Z" fill="#757575"/>
</svg>
