<svg width="100" height="100" viewBox="0 0 64 64" fill="none" xmlns="http://www.w3.org/2000/svg">
<path d="M32 64C49.6731 64 64 49.6731 64 32C64 14.3269 49.6731 0 32 0C14.3269 0 0 14.3269 0 32C0 49.6731 14.3269 64 32 64Z" fill="#77B3D4"/>
<g opacity="0.2">
<path d="M48 37.077C48 46.423 40.837 54 32 54C23.163 54 16 46.423 16 37.077C16 27.731 25.6 20.154 32 10C38.4 20.154 48 27.731 48 37.077Z" fill="#231F20"/>
</g>
<path d="M48 35.077C48 44.423 40.837 52 32 52C23.163 52 16 44.423 16 35.077C16 25.731 25.6 18.154 32 8C38.4 18.154 48 25.731 48 35.077Z" fill="white"/>
</svg>
